name Walk7.mot
datacolumns 19
datarows 22
range 3.86300000 3.88400000
endheader

                time	   L_ground_force_vx	   L_ground_force_vy	   L_ground_force_vz	   L_ground_force_px	   L_ground_force_py	   L_ground_force_pz	   R_ground_force_vx	   R_ground_force_vy	   R_ground_force_vz	   R_ground_force_px	   R_ground_force_py	   R_ground_force_pz	   L_ground_torque_x	   L_ground_torque_y	   L_ground_torque_z	   R_ground_torque_x	   R_ground_torque_y	   R_ground_torque_z	
          3.86300000	         32.03845947	        181.07852247	         -1.20246359	          0.34553800	          0.00000000	          0.11785137	          0.00000000	          0.00000000	          0.00000000	          0.00000000	          0.00000000	          0.00000000	          0.00000000	         -7.73085223	          0.00000000	          0.00000000	          0.00000000	          0.00000000	
          3.86400000	         29.91224147	        171.44333292	         -1.03533858	          0.34661957	          0.00000000	          0.11712331	          0.00000000	          0.00000000	          0.00000000	          0.00000000	          0.00000000	          0.00000000	          0.00000000	         -7.36728518	          0.00000000	          0.00000000	          0.00000000	          0.00000000	
          3.86500000	         27.73199250	        162.01360026	         -0.89746590	          0.34772263	          0.00000000	          0.11617945	          0.00000000	          0.00000000	          0.00000000	          0.00000000	          0.00000000	          0.00000000	          0.00000000	         -6.99625064	          0.00000000	          0.00000000	          0.00000000	          0.00000000	
          3.86600000	         25.51976452	        152.80487140	         -0.77623983	          0.34878970	          0.00000000	          0.11508461	          0.00000000	          0.00000000	          0.00000000	          0.00000000	          0.00000000	          0.00000000	          0.00000000	         -6.62854656	          0.00000000	          0.00000000	          0.00000000	          0.00000000	
          3.86700000	         23.29147335	        143.86971953	         -0.66242502	          0.34989304	          0.00000000	          0.11402168	          0.00000000	          0.00000000	          0.00000000	          0.00000000	          0.00000000	          0.00000000	          0.00000000	         -6.27076577	          0.00000000	          0.00000000	          0.00000000	          0.00000000	
          3.86800000	         21.06218897	        135.25791592	         -0.54401380	          0.35116216	          0.00000000	          0.11320613	          0.00000000	          0.00000000	          0.00000000	          0.00000000	          0.00000000	          0.00000000	          0.00000000	         -5.92309913	          0.00000000	          0.00000000	          0.00000000	          0.00000000	
          3.86900000	         18.85067705	        127.02010423	         -0.40633375	          0.35266311	          0.00000000	          0.11273080	          0.00000000	          0.00000000	          0.00000000	          0.00000000	          0.00000000	          0.00000000	          0.00000000	         -5.57882572	          0.00000000	          0.00000000	          0.00000000	          0.00000000	
          3.87000000	         16.67144942	        119.20665936	         -0.24371294	          0.35438787	          0.00000000	          0.11244977	          0.00000000	          0.00000000	          0.00000000	          0.00000000	          0.00000000	          0.00000000	          0.00000000	         -5.22850441	          0.00000000	          0.00000000	          0.00000000	          0.00000000	
          3.87100000	         14.52496931	        111.84069932	         -0.06643699	          0.35634022	          0.00000000	          0.11207526	          0.00000000	          0.00000000	          0.00000000	          0.00000000	          0.00000000	          0.00000000	          0.00000000	         -4.86927522	          0.00000000	          0.00000000	          0.00000000	          0.00000000	
          3.87200000	         12.40031219	        104.91277650	          0.10621324	          0.35859949	          0.00000000	          0.11137714	          0.00000000	          0.00000000	          0.00000000	          0.00000000	          0.00000000	          0.00000000	          0.00000000	         -4.50657098	          0.00000000	          0.00000000	          0.00000000	          0.00000000	
          3.87300000	         10.29088036	         98.41019673	          0.25844517	          0.36122935	          0.00000000	          0.11028408	          0.00000000	          0.00000000	          0.00000000	          0.00000000	          0.00000000	          0.00000000	          0.00000000	         -4.14720705	          0.00000000	          0.00000000	          0.00000000	          0.00000000	
          3.87400000	          8.21045770	         92.34170256	          0.38591886	          0.36410969	          0.00000000	          0.10893639	          0.00000000	          0.00000000	          0.00000000	          0.00000000	          0.00000000	          0.00000000	          0.00000000	         -3.79626101	          0.00000000	          0.00000000	          0.00000000	          0.00000000	
          3.87500000	          6.19289869	         86.72621012	          0.49716133	          0.36692471	          0.00000000	          0.10764638	          0.00000000	          0.00000000	          0.00000000	          0.00000000	          0.00000000	          0.00000000	          0.00000000	         -3.45792469	          0.00000000	          0.00000000	          0.00000000	          0.00000000	
          3.87600000	          4.27624742	         81.54243659	          0.61272826	          0.36929243	          0.00000000	          0.10666795	          0.00000000	          0.00000000	          0.00000000	          0.00000000	          0.00000000	          0.00000000	          0.00000000	         -3.13622489	          0.00000000	          0.00000000	          0.00000000	          0.00000000	
          3.87700000	          2.48591251	         76.69455538	          0.75748360	          0.37090187	          0.00000000	          0.10597265	          0.00000000	          0.00000000	          0.00000000	          0.00000000	          0.00000000	          0.00000000	          0.00000000	         -2.83587217	          0.00000000	          0.00000000	          0.00000000	          0.00000000	
          3.87800000	          0.82584022	         72.07037896	          0.94488091	          0.37170760	          0.00000000	          0.10532588	          0.00000000	          0.00000000	          0.00000000	          0.00000000	          0.00000000	          0.00000000	          0.00000000	         -2.56136445	          0.00000000	          0.00000000	          0.00000000	          0.00000000	
          3.87900000	         -0.71916106	         67.64109256	          1.17127166	          0.37214646	          0.00000000	          0.10456878	          0.00000000	          0.00000000	          0.00000000	          0.00000000	          0.00000000	          0.00000000	          0.00000000	         -2.31345448	          0.00000000	          0.00000000	          0.00000000	          0.00000000	
          3.88000000	         -2.17176008	         63.48542357	          1.42522525	          0.37302845	          0.00000000	          0.10373297	          0.00000000	          0.00000000	          0.00000000	          0.00000000	          0.00000000	          0.00000000	          0.00000000	         -2.08598059	          0.00000000	          0.00000000	          0.00000000	          0.00000000	
          3.88100000	         -3.55225223	         59.72115356	          1.69797102	          0.37499069	          0.00000000	          0.10293807	          0.00000000	          0.00000000	          0.00000000	          0.00000000	          0.00000000	          0.00000000	          0.00000000	         -1.86780992	          0.00000000	          0.00000000	          0.00000000	          0.00000000	
          3.88200000	         -4.87927303	         56.40758874	          1.98737351	          0.37803879	          0.00000000	          0.10228793	          0.00000000	          0.00000000	          0.00000000	          0.00000000	          0.00000000	          0.00000000	          0.00000000	         -1.64887173	          0.00000000	          0.00000000	          0.00000000	          0.00000000	
          3.88300000	         -6.17012075	         53.49222049	          2.29298077	          0.38160883	          0.00000000	          0.10180802	          0.00000000	          0.00000000	          0.00000000	          0.00000000	          0.00000000	          0.00000000	          0.00000000	         -1.42360407	          0.00000000	          0.00000000	          0.00000000	          0.00000000	
          3.88400000	         -7.43234533	         50.84897989	          2.60478726	          0.38502055	          0.00000000	          0.10135018	          0.00000000	          0.00000000	          0.00000000	          0.00000000	          0.00000000	          0.00000000	          0.00000000	         -1.19207691	          0.00000000	          0.00000000	          0.00000000	          0.00000000	
